<?xml version="1.0" encoding="utf-8"?>
<!-- Generator: Adobe Illustrator 23.0.2, SVG Export Plug-In . SVG Version: 6.00 Build 0)  -->
<svg version="1.1" xmlns="http://www.w3.org/2000/svg" xmlns:xlink="http://www.w3.org/1999/xlink" x="0px" y="0px"
	 viewBox="0 0 779.2 145.9" style="enable-background:new 0 0 779.2 145.9;" xml:space="preserve">
<style type="text/css">
	.st0{fill:#EECD3F;}
	.st1{fill:none;stroke:#EDD949;stroke-miterlimit:10;}
	.st2{fill:#FAF199;}
	.st3{fill:none;}
	.st4{fill:#5BB24B;}
</style>
<g>
	<g>
		<path class="st0" d="M59.7,115.4H23.1c-6.3,0-11.6-2.2-16.1-6.7c-4.5-4.5-6.7-9.8-6.7-16.1V-0.1h9.6v92.7c0,3.7,1.3,6.8,3.9,9.4
			c2.6,2.6,5.7,3.9,9.4,3.9h36.7V115.4z"/>
		<path class="st0" d="M161.5,76.7H83.8c-1.2,0-1.7,0.6-1.5,1.7c1.6,8.2,5.7,15.1,12.1,20.5c6.4,5.4,13.9,8.2,22.4,8.2
			c7.1,0,13.6-1.9,19.4-5.8s10.2-9,13-15.5h10.2c-3.1,9.1-8.5,16.6-16.3,22.3c-7.8,5.7-16.5,8.6-26.2,8.6
			c-12.3,0-22.9-4.4-31.6-13.1c-8.7-8.7-13.1-19.3-13.1-31.6c0-12.3,4.4-22.9,13.1-31.6c8.7-8.7,19.3-13.1,31.6-13.1
			s22.9,4.4,31.6,13.1c8.7,8.7,13.1,19.3,13.1,31.6V76.7z M151.3,65.3c-1.6-8.2-5.7-15-12.1-20.4c-6.4-5.4-13.9-8.1-22.4-8.1
			c-8.5,0-16,2.7-22.4,8.1c-6.4,5.4-10.5,12.2-12.1,20.4c-0.2,1.2,0.3,1.8,1.5,1.8h66C151,67.1,151.5,66.5,151.3,65.3z"/>
		<path class="st0" d="M283.2,115.4h-9.6V56.9c0-5.5-2-10.3-5.9-14.2c-3.9-3.9-8.7-5.9-14.3-5.9c-5.5,0-10.2,2-14.2,5.9
			c-3.9,4-5.9,8.7-5.9,14.2v58.5h-9.6V56.9c0-5.5-2-10.3-5.9-14.2c-3.9-3.9-8.7-5.9-14.2-5.9c-5.6,0-10.4,2-14.4,5.9
			c-3.9,4-5.9,8.7-5.9,14.2v58.5h-9.6V56.8c0-8.1,2.9-15.1,8.7-20.9c5.8-5.8,12.8-8.7,21-8.7c10.7,0,19,4.5,24.8,13.6
			c6-9,14.3-13.6,25-13.6c8.2,0,15.2,2.9,21,8.7c5.8,5.8,8.7,12.8,8.7,20.9V115.4z"/>
		<path class="st0" d="M444.4,115.4h-9.6V61.7c0-6.9-2.4-12.7-7.3-17.6c-4.9-4.9-10.7-7.3-17.5-7.3c-6.9,0-12.8,2.4-17.7,7.3
			c-4.9,4.9-7.3,10.7-7.3,17.6v53.7h-9.6V61.6c0-9.5,3.4-17.6,10.1-24.3c6.7-6.7,14.9-10.1,24.4-10.1c9.5,0,17.6,3.4,24.3,10.1
			c6.7,6.7,10.1,14.8,10.1,24.3V115.4z"/>
		<path class="st0" d="M454.1,5h103.7v27.3H523v83.1h-34.1V32.3h-34.8V5z"/>
		<path class="st0" d="M571.5,35.4h28.7v13.1c2.8-5.7,5.6-9.6,8.5-11.7c2.9-2.1,6.6-3.2,10.9-3.2c4.5,0,9.5,1.4,14.8,4.2l-9.5,21.8
			c-3.6-1.5-6.5-2.3-8.6-2.3c-4,0-7.1,1.7-9.3,5c-3.2,4.7-4.7,13.4-4.7,26.2v26.8h-30.8V35.4z"/>
		<path class="st0" d="M640.7,5h30.6v20.9h-30.6V5z M640.7,35.4h30.6v80h-30.6V35.4z"/>
		<path class="st0" d="M691.1,145.8V35.4h28.7v11.8c4-5,7.6-8.3,10.9-10.1c4.5-2.4,9.4-3.5,14.8-3.5c10.7,0,19,4.1,24.8,12.3
			c5.8,8.2,8.8,18.3,8.8,30.3c0,13.3-3.2,23.5-9.6,30.5c-6.4,7-14.4,10.5-24.2,10.5c-4.7,0-9-0.8-12.9-2.4c-3.9-1.6-7.4-4-10.4-7.2
			v38.2H691.1z M721.8,75.6c0,6.3,1.3,11,4,14.1c2.7,3.1,6,4.6,10.1,4.6c3.6,0,6.5-1.5,9-4.4c2.4-2.9,3.6-7.9,3.6-14.9
			c0-6.5-1.3-11.2-3.8-14.3c-2.5-3-5.6-4.6-9.2-4.6c-3.9,0-7.2,1.5-9.8,4.6C723.1,63.8,721.8,68.8,721.8,75.6z"/>
	</g>
</g>
<g>
	<circle class="st1" cx="328.2" cy="71.9" r="42.6"/>
	<g>
		<path class="st0" d="M334.3,52.4c-0.1,0.8-1.4,0.6-2,0.1c-0.5-0.5-1.1-0.8-1.1-0.8c-0.8-1.5,1.1-1.3,1.1-1.3
			C334.1,50.6,334.4,51.6,334.3,52.4z"/>
		<g>
			<g>
				<g>
					<path class="st0" d="M335.9,42.3c-0.4,1.1-2.2,0.4-2.2,0.4c-0.3,1.1-1.7,1.3-2.5,0.5c-0.9-0.8-1-0.1-1.2-1.3
						c-0.3-1.2,0.5-0.4,1.8-1c1.3-0.6-0.1-0.5-0.1-0.5s-2.4-0.4-2.6-0.4c-0.2,0-1,0.9-1,0.9l-0.2,0l-1-0.1c0,0-0.4,1.2-1.6,1.6
						c-1.2,0.4-1.4-1-1.4-1s-2,0.8-3.6,1.2c-1.6,0.4-2.1,2.5-1,2.6c1.1,0.1,2.2,0.8,2.4,1.8c0.2,1-0.2,2,1.4,0.3
						c1.6-1.6,2.5,0.6,3.1-1.7c0.5-1.7,0.7-2.2,1.7-2.3c0.3,0,0.7,0,1.2,0c2,0.1,0.8,2.1,1.4,2.6c0.6,0.5,1.8-0.8,2.4-0.4
						c0.6,0.4-1.4,1.9,0.1,2.1c1.5,0.2,1.9,1.5,1.1,2.5c-0.7,1-2.6-1.3-2.9-0.4c-0.4,0.9-0.9,0.8-2.3,0c-0.4-0.2-0.7-0.3-1-0.2
						c-0.7,0.1-1.1,0.9-1.9,2.1c-1.1,1.6-6,4-6.3,4.5c-0.3,0.5-0.7,0.8-0.7,0.8l-4,2.5c0,0,0.5,2.6-1,2.5c-1.5-0.1-0.9-0.7-1.4-2.2
						c-0.5-1.5-6.8-1.2-8.1,1.8c-1.3,3,1.1,3.4,1.8,3.3c0.8,0,2.3-1.2,2.9-1.2c0.5-0.1,1,1.1,0,1.9c-0.9,0.8-0.4,1-0.4,1
						c2.3,0,2,1.7,1.6,3.2c-0.4,1.4,1.4,1.3,2.8,1.8c1.4,0.4,1.8-1.5,3.3-1.9c1.5-0.4,1.9,1.5,2.2,2c0.3,0.5,0.6,0.3,2.7,0.2
						c2.1-0.1,2.7,3,2.7,3c4.2,0,3.2,4.3,3.2,4.3s0.3,0.1,0.6,0.3c0.4,0.2,0.9,0.5,1.3,0.9c0.8,0.6,2.8,0.4,3.7,0.6
						c0.9,0.2,1.3,1.5,1.3,1.5c1.1,0,2.6,2.2,0.8,3c-1.9,0.9-1.8,1.9-1.8,1.9c-0.5,6-1.9,4.5-1.9,4.5s0.2,0.8-1.4,0.6
						c-0.8-0.1-1.5,0-1.9,0.2c-0.4,0.2-0.6,0.6-0.5,1.2c0.2,1.2-0.4,2.4-0.4,2.4s-1.7,2.1-3.5,3.9c-1.8,1.8-3.9,1.1-4.6,1.1
						c-0.7,0-0.4,0.2,0.5,0.9c0.9,0.7-0.2,1.2-0.6,1.2c-0.5,0-0.6,0.8,0.5,1.5c1.1,0.7,0.3,1.1,0,2.5c-0.3,1.4,0.7,1.1,1.4,1.9
						c0.7,0.7-0.3,1.9-0.8,1.2s-1.6-0.8-2.3-1c-0.7-0.2-1-0.7-1.4-2.1c-0.4-1.3-0.6-0.8-1.6-2.3c-0.9-1.5,0.5-2.9,0.6-4.3
						c0.1-1.4-1.4-2.5-1.3-3.6c0.2-1.1,0.8-1.1,0.3-2c-0.5-0.9,0.4-4.5,0.9-6.5c0.5-2-2.1-2.4-3.2-3.2c-1.1-0.8-0.4-1.7-1.3-3.3
						c-1-1.6-1.5-2.4-1.2-4.5c0.2-2.1,2.3-2.1,2.9-3.1c0.7-1,0-2.6,0-2.6c-4.1,1-4.6-1.7-5.2-3.1c-0.6-1.4,0-0.8-1.4-1
						c-1.4-0.2-0.7-0.7-1.4-1.6c-0.7-0.9-1.9,1.7-4-0.7c-2.1-2.4,0.6-2.2-1.2-5.5c-1.8-3.3,0-3.5-1.2-4.1c-1.2-0.6-0.9,1.9-0.4,2.7
						c0.5,0.8,1.5,2.5-0.5,2.2c-2-0.4-1.6-3.6-1.3-5.1c0.3-1.5-0.2-1.6-1-1.8c-0.8-0.2-0.9-0.9-0.9-0.9c5-11.6,17.4-17.3,17.4-17.3
						c-0.1,1.4,6.1,3.2,6.4,2.9c0.3-0.3-0.2-0.5-1.4-0.7c-1.2-0.3-0.1-0.8-0.9-1c-0.8-0.3-1.3-0.9-0.3-1.8c0.9-0.8,3.6-0.4,3.9,0.6
						c0.3,0.9,0.7,1.1,0.7,1.1c2.9,0.4,1.5-1,2.8-0.6c1.3,0.4,0.6,1.5-0.6,1.8s-2,0.2-2,0.2s0.1,1.3,1.2,1.2
						c1.1-0.1,1.9-0.3,2.7-0.5c0.9-0.2,0.1-0.7,0.2-1.7c0.1-1,3.2-0.5,3.1,0.7c-0.2,1.2-1.1,1.6-1.1,1.6s1.6,1.4,2-0.8
						c0-0.2,0.1-0.3,0.2-0.5c0.9-1.5,4.4-0.8,5.8,0.1c1.6,1,1.7,2.5,1.7,2.5S336.3,41.1,335.9,42.3z"/>
				</g>
				<g>
					<path class="st0" d="M326.6,52.1c0,0-1.1,0.4-0.6,1C326.5,53.8,327.9,53.4,326.6,52.1z"/>
				</g>
				<g>
					<path class="st0" d="M328.9,51.2c-0.2,0.3-0.7,0.3-1.1,0.1c-0.3-0.1-0.4-0.4-0.4-0.7c0.1-0.4,0.2-0.5,0.4-0.6
						c0.2-0.1,0.4,0,0.4,0S329.3,50.7,328.9,51.2z"/>
				</g>
				<g>
					<path class="st0" d="M329.3,53.2c0,0-1,1.1-1.4,0c0-0.1,0-0.1-0.1-0.2c-0.1-0.3-0.1-0.5,0-0.6c0.2-0.2,0.6-0.2,1-0.2
						c0.6-0.1,1.2-0.7,1.2-0.7C331.5,52.7,329.3,53.2,329.3,53.2z"/>
				</g>
				<g>
					<path class="st0" d="M334.3,52.4c-0.1,0.8-1.4,0.6-2,0.1c-0.5-0.5-1.1-0.8-1.1-0.8c-0.8-1.5,1.1-1.3,1.1-1.3
						C334.1,50.6,334.4,51.6,334.3,52.4z"/>
				</g>
			</g>
		</g>
	</g>
	<path class="st2" d="M363.1,95.9c-8.1,11.7-21.2,18-34.5,18v-84c8.2,0,16.5,2.4,23.8,7.4l0-0.1C371.5,50.5,376.3,76.8,363.1,95.9z"
		/>
	<path class="st1" d="M370.8,71.9c0,23.5-19.1,42.6-42.6,42.6c-0.1,0-0.1,0-0.2,0V29.3c0.1,0,0.1,0,0.2,0
		C351.7,29.3,370.8,48.4,370.8,71.9z"/>
	<g>
		<g>
			<g>
				<path class="st0" d="M338.9,69.8c0,0,22.8-4.3,24.8-5.5c0,0,4.3-3.4,1-8.4c-3.4-5-8-13.3-13.6-7.1c-5.5,6.2-13.6,18.2-13.6,18.2
					S336.5,70.4,338.9,69.8z"/>
				<path class="st0" d="M337.7,74.5c0,0,24.9,8.9,25.6,8.6c0.7-0.3,6.9-3.8,4-12.7c0,0,0-5.4-7.9-3.4c-7.9,2-21.6,4.3-22.3,4.9
					C336.2,72.6,336.5,74.1,337.7,74.5z"/>
				<path class="st0" d="M336.4,76.3c-0.9,1.2,0.1,2.5,1.1,4.1c1,1.6,13.4,17.5,15,18.3c1.6,0.8,6.2-2.4,7.5-3.9
					c1.2-1.5,8.2-9.5,0.9-10.8C353.5,82.7,337.7,74.5,336.4,76.3z"/>
				<path class="st0" d="M331.4,97.5v-1.9c0.1-4,0.5-8.1,0.7-9.9c0.6-8.3,2.1-6.9,2.1-6.9c1.2,0.2,11.9,13.8,15.3,19.6
					c3.3,5.8-12,8.9-15.6,8C332.1,105.9,331.5,101.9,331.4,97.5z"/>
				<path class="st2" d="M337.3,89.4c0.2-0.1,0-1-0.5-2.1c-0.5-1.1-1-1.8-1.2-1.8c-0.2,0.1,0,1,0.5,2.1
					C336.6,88.7,337.1,89.4,337.3,89.4z"/>
				<path class="st2" d="M339.3,75.7c-0.1,0.2,0.8,0.6,1.9,0.9c1.1,0.3,2,0.4,2.1,0.2c0.1-0.2-0.8-0.6-1.9-0.9
					C340.3,75.6,339.4,75.5,339.3,75.7z"/>
				<path class="st2" d="M343.4,85.2c0.1-0.1-0.4-0.9-1.2-1.7c-0.8-0.8-1.6-1.3-1.8-1.2c-0.1,0.1,0.4,0.9,1.2,1.7
					C342.4,84.9,343.2,85.4,343.4,85.2z"/>
				<path class="st2" d="M340.3,67.4c0.2,0.2,1.4-0.5,2.6-1.6c1.2-1.1,2-2.3,1.8-2.5c-0.2-0.2-1.4,0.5-2.6,1.6
					C340.9,66.1,340.1,67.2,340.3,67.4z"/>
				<path class="st2" d="M334.1,97.1c0.3-0.1,0.3-1.2,0-2.5c-0.3-1.3-0.7-2.3-0.9-2.3c-0.3,0-0.3,1.2,0,2.5
					C333.4,96.2,333.8,97.2,334.1,97.1z"/>
				<path class="st2" d="M348.3,82.8c0.1-0.2-0.7-0.9-1.9-1.5c-1.2-0.6-2.2-0.9-2.3-0.7c-0.1,0.2,0.7,0.9,1.9,1.5
					C347.1,82.7,348.2,83,348.3,82.8z"/>
				<path class="st2" d="M352.1,93.8c0.2-0.2-0.8-1.4-2.3-2.6c-1.4-1.3-2.7-2.1-2.9-1.9c-0.2,0.2,0.8,1.4,2.3,2.6
					C350.7,93.1,352,94,352.1,93.8z"/>
				<path class="st2" d="M353.7,66.7c-0.1-0.2-1.6,0.2-3.3,1c-1.7,0.8-3,1.6-2.9,1.9c0.1,0.2,1.6-0.2,3.3-1
					C352.5,67.8,353.8,66.9,353.7,66.7z"/>
				<path class="st2" d="M346.5,65.5c0.1,0.2,1.7-0.8,3.6-2.1c1.8-1.4,3.2-2.6,3.1-2.8c-0.1-0.2-1.7,0.8-3.6,2.1
					C347.8,64.1,346.4,65.3,346.5,65.5z"/>
				<path class="st2" d="M346.8,58.5c0.2,0.2,1.5-1.2,2.9-3c1.4-1.8,2.5-3.4,2.3-3.5c-0.2-0.1-1.5,1.2-2.9,3
					C347.7,56.8,346.7,58.4,346.8,58.5z"/>
				<path class="st2" d="M351.3,78.3c0,0.2,1.8,0.6,4,0.9c2.3,0.3,4.1,0.3,4.2,0.1c0-0.2-1.8-0.6-4-0.9
					C353.2,78.2,351.4,78.1,351.3,78.3z"/>
				<path class="st2" d="M353.7,73c-0.1,0.2,1.3,0.3,3,0.1c1.7-0.1,3.1-0.4,3.2-0.6c0.1-0.2-1.3-0.3-3-0.1
					C355.2,72.5,353.8,72.8,353.7,73z"/>
				<path class="st2" d="M346.8,73.4c-0.1,0.2,1.1,0.6,2.8,1c1.7,0.4,3.1,0.5,3.2,0.3c0.1-0.2-1.1-0.6-2.8-1
					C348.3,73.4,346.9,73.3,346.8,73.4z"/>
				<path class="st2" d="M340.2,101.4c0.2-0.1-0.1-1.9-0.8-4.1c-0.6-2.2-1.3-4-1.5-3.9c-0.2,0.1,0.1,1.9,0.8,4.1
					C339.3,99.7,340,101.4,340.2,101.4z"/>
			</g>
		</g>
		<path class="st0" d="M332.9,65.7c0,0-0.7-4.1-1.5-9V37.1c1.1-0.9,2.8-1.4,5.2-0.8c5.8,1.5,15,3,11.3,10.5
			c-3.7,7.4-12,19.4-12,19.4S333.2,68.1,332.9,65.7z"/>
		<path class="st0" d="M329.9,56.3c0.1,0.4,0.1,0.7,0.2,1.1C330,57.2,329.9,56.8,329.9,56.3z"/>
		<path class="st0" d="M325.8,64.6c0.2,0.2,0.4,0.4,0.5,0.7C326.2,65,326,64.8,325.8,64.6z"/>
		<path class="st2" d="M334.6,63.5c-0.3-0.1-0.1-1.5,0.6-3.1c0.6-1.6,1.4-2.7,1.7-2.6c0.3,0.1,0.1,1.5-0.6,3.1
			C335.7,62.4,334.9,63.6,334.6,63.5z"/>
		<path class="st2" d="M329.9,56.3c0.1,0.4,0.1,0.7,0.2,1.1C330,57.2,329.9,56.8,329.9,56.3z"/>
		<path class="st2" d="M334.2,56.9c-0.2-0.1,0.1-1.9,0.7-4.1c0.6-2.2,1.3-4,1.5-4c0.2,0-0.1,1.9-0.7,4.1
			C335.1,55.2,334.4,56.9,334.2,56.9z"/>
		<path class="st2" d="M340.5,54.1c-0.2-0.1,0.6-1.8,1.7-3.8c1.2-2,2.2-3.5,2.4-3.4c0.2,0.1-0.6,1.8-1.7,3.8
			C341.8,52.7,340.7,54.2,340.5,54.1z"/>
		<line class="st3" x1="331.4" y1="114.7" x2="331.4" y2="114.7"/>
		<line class="st3" x1="331.4" y1="111.9" x2="331.4" y2="112"/>
		<line class="st3" x1="331.4" y1="28.8" x2="331.4" y2="28.9"/>
		<line class="st3" x1="331.4" y1="31.5" x2="331.4" y2="31.5"/>
	</g>
	<path class="st4" d="M313.6,82.2c-1.2,0.3-2.3,0.1-4.7,0.8c-1.4,0.4-1.5,0.6-1.6,0.8c-0.1,0.8,3.6,0.8,6.2,3.1
		c3,2.6,3.1,6.7,3.9,6.6c0.4-0.1,0.5-1,0.8-2.7c0.4-2.9,0.1-3.2,0.4-4.3c0.6-2.3,2.7-3.6,6.2-5.8c1.6-1,2.5-1.6,3.1-1.4
		c1.6,0.5,1.7,2.7,4.7,9.7c1.2,2.9,1.9,4.2,2.5,4.1c0.6-0.1,0.9-1.5,1.1-2.8c-0.1-1.5-0.2-3-0.3-4.5c-0.4-3.4-0.8-6.8-1.1-10.2
		c-0.2-0.8-0.4-2-0.1-3.3c0.5-2.2,1.9-3.3,3.7-5.1c0.8-0.9,7.3-7.5,6-9.7c-0.2-0.4-0.7-0.5-1-0.6c-1.8-0.6-3.7,0.9-7.5,4.1
		c-5,4.2-4.6,4-5,4.2c-3.2,1.6-6.6,1.2-11.5,0.6c-1.9-0.2-3.9-0.6-7.3-0.6c-2.4,0-4.3-0.1-4.5,0.6c-0.3,1,3.8,3,5.4,3.8
		c5.4,2.7,8.1,2.7,8.4,4.4c0.2,1-0.8,2.1-2.7,4.3C316.6,80.5,315.5,81.8,313.6,82.2z"/>
</g>
</svg>
